<svg width="1200" height="630" viewBox="0 0 1200 630" fill="none" xmlns="http://www.w3.org/2000/svg">
<rect width="1200" height="630" fill="#FFFDEE"/>
<g filter="url(#filter0_d_402_10)">
<circle cx="600.5" cy="314.5" r="282.5" fill="url(#paint0_linear_402_10)"/>
</g>
<path d="M341.75 364.821L349.163 362.968V283.889L341.75 282.036V280.182H373.258C388.003 280.182 399.288 283.972 407.113 291.55C415.021 299.128 418.975 309.755 418.975 323.429C418.975 337.103 415.021 347.729 407.113 355.307C399.288 362.885 388.003 366.675 373.258 366.675H341.75V364.821ZM373.258 363.586C380.918 363.586 386.849 360.497 391.05 354.319C395.251 348.058 397.352 337.762 397.352 323.429C397.352 309.096 395.251 298.84 391.05 292.662C386.849 286.402 380.918 283.271 373.258 283.271H369.551V363.586H373.258ZM432.547 309.219C434.277 308.642 436.007 307.695 437.737 306.377C441.279 303.741 443.462 300.158 444.286 295.627L442.679 296.616C441.608 297.193 440.29 297.481 438.725 297.481C436.254 297.481 434.071 296.575 432.177 294.763C430.364 292.868 429.458 290.685 429.458 288.214C429.458 285.743 430.364 283.601 432.177 281.789C434.071 279.894 436.254 278.947 438.725 278.947C441.608 278.947 443.956 279.976 445.768 282.036C447.663 284.013 448.61 286.69 448.61 290.067C448.61 297.646 446.139 303.577 441.197 307.86C439.055 309.837 436.584 311.32 433.783 312.308L432.547 309.219ZM506.114 295.627V361.114L515.999 364.821V366.675H492.522V364.821L502.407 361.114V283.889L494.994 282.036V280.182H510.439C514.722 280.182 518.099 281.089 520.57 282.901C523.124 284.631 525.307 287.225 527.119 290.685L554.055 342.21L574.69 290.685C576.09 287.061 577.985 284.425 580.374 282.777C582.763 281.047 586.428 280.182 591.371 280.182H604.344V282.036L596.931 283.889V362.968L604.344 364.821V366.675H569.13V364.821L576.543 362.968V295.627L547.507 367.91H543.8L506.114 295.627ZM639.602 368.528C632.271 368.528 626.629 366.963 622.675 363.833C618.721 360.703 616.744 356.707 616.744 351.847C616.744 348.635 617.444 345.463 618.844 342.333C619.421 340.851 620.162 339.491 621.068 338.256C624.446 337.432 628.111 336.691 632.065 336.032C640.962 334.549 648.828 333.643 655.665 333.313V329.607C655.665 320.463 654.553 314.162 652.329 310.702C650.105 307.242 646.687 305.512 642.074 305.512C640.344 305.512 638.861 305.718 637.626 306.13L635.896 306.748V325.282L634.289 325.653C632.971 325.817 631.859 325.9 630.953 325.9C628.153 325.9 625.887 325.076 624.157 323.429C622.51 321.699 621.686 319.433 621.686 316.633C621.686 312.844 623.581 309.631 627.37 306.995C631.242 304.359 636.967 303.041 644.545 303.041C650.97 303.041 656.489 304.194 661.102 306.501C665.797 308.725 669.339 311.855 671.728 315.891C674.199 319.845 675.435 324.417 675.435 329.607V362.968L682.849 364.821V366.675H671.728C666.786 366.675 662.955 365.151 660.237 362.103C659.084 360.867 658.178 359.302 657.519 357.408C656.366 359.467 655.006 361.32 653.441 362.968C649.734 366.675 645.122 368.528 639.602 368.528ZM644.545 364.203C647.593 364.203 650.352 362.556 652.823 359.261C653.73 358.025 654.677 356.378 655.665 354.319V336.402C651.876 336.402 648.252 336.608 644.792 337.02C642.238 337.35 640.509 337.556 639.602 337.638C639.191 338.544 638.779 339.78 638.367 341.345C637.543 344.475 637.131 347.564 637.131 350.612C637.131 355.225 637.831 358.643 639.232 360.867C640.632 363.091 642.403 364.203 644.545 364.203ZM690.32 364.821L697.734 362.968V308.601L690.32 306.748V304.894H701.441C706.301 304.894 710.131 306.46 712.932 309.59C714.003 310.825 714.909 312.349 715.65 314.162C716.886 312.349 718.41 310.702 720.222 309.219C724.34 305.924 728.953 304.277 734.06 304.277C738.426 304.277 741.68 305.306 743.822 307.366C746.046 309.343 747.158 312.226 747.158 316.015C747.158 318.816 746.293 321.081 744.563 322.811C742.916 324.458 740.692 325.282 737.891 325.282C736.738 325.282 735.584 325.2 734.431 325.035L732.948 324.664V307.366C728.747 307.366 724.917 309.013 721.457 312.308C719.81 313.956 718.492 315.603 717.503 317.251V362.968L724.917 364.821V366.675H690.32V364.821ZM752.704 364.821L760.117 362.968V308.601L752.704 306.748V304.894H768.766C776.18 304.894 779.887 308.601 779.887 316.015V362.968L787.3 364.821V366.675H752.704V364.821ZM768.766 297.481C766.295 297.481 764.236 296.657 762.588 295.01C760.941 293.362 760.117 291.303 760.117 288.832C760.117 286.36 760.941 284.301 762.588 282.654C764.236 281.006 766.295 280.182 768.766 280.182C771.238 280.182 773.297 281.006 774.944 282.654C776.592 284.301 777.416 286.36 777.416 288.832C777.416 291.303 776.592 293.362 774.944 295.01C773.297 296.657 771.238 297.481 768.766 297.481ZM818.789 368.528C811.458 368.528 805.815 366.963 801.861 363.833C797.907 360.703 795.93 356.707 795.93 351.847C795.93 348.635 796.631 345.463 798.031 342.333C798.608 340.851 799.349 339.491 800.255 338.256C803.632 337.432 807.298 336.691 811.252 336.032C820.148 334.549 828.015 333.643 834.852 333.313V329.607C834.852 320.463 833.74 314.162 831.516 310.702C829.292 307.242 825.873 305.512 821.26 305.512C819.53 305.512 818.048 305.718 816.812 306.13L815.082 306.748V325.282L813.476 325.653C812.158 325.817 811.046 325.9 810.14 325.9C807.339 325.9 805.074 325.076 803.344 323.429C801.697 321.699 800.873 319.433 800.873 316.633C800.873 312.844 802.767 309.631 806.557 306.995C810.428 304.359 816.153 303.041 823.731 303.041C830.157 303.041 835.676 304.194 840.289 306.501C844.984 308.725 848.526 311.855 850.915 315.891C853.386 319.845 854.622 324.417 854.622 329.607V362.968L862.035 364.821V366.675H850.915C845.972 366.675 842.142 365.151 839.424 362.103C838.27 360.867 837.364 359.302 836.705 357.408C835.552 359.467 834.193 361.32 832.628 362.968C828.921 366.675 824.308 368.528 818.789 368.528ZM823.731 364.203C826.779 364.203 829.539 362.556 832.01 359.261C832.916 358.025 833.863 356.378 834.852 354.319V336.402C831.063 336.402 827.438 336.608 823.979 337.02C821.425 337.35 819.695 337.556 818.789 337.638C818.377 338.544 817.965 339.78 817.553 341.345C816.73 344.475 816.318 347.564 816.318 350.612C816.318 355.225 817.018 358.643 818.418 360.867C819.819 363.091 821.59 364.203 823.731 364.203Z" fill="#FFF06D"/>
<path d="M408.313 205.519V204.911L410.746 204.303V178.35L408.313 177.742V177.134H419.869V177.742L417.436 178.35V190.921H426.155V178.35L423.722 177.742V177.134H435.278V177.742L432.845 178.35V204.303L435.278 204.911V205.519H423.722V204.911L426.155 204.303V191.935H417.436V204.303L419.869 204.911V205.519H408.313ZM448.646 206.127C447.132 206.127 445.767 205.817 444.55 205.195C443.361 204.546 442.428 203.708 441.752 202.681C441.076 201.653 440.738 200.572 440.738 199.437V186.461L438.305 185.852V185.244H443.577C446.01 185.244 447.227 186.461 447.227 188.894V199.437C447.227 201.14 447.524 202.451 448.119 203.37C448.74 204.262 449.457 204.708 450.268 204.708C451.268 204.708 452.174 204.167 452.985 203.086C453.282 202.681 453.593 202.14 453.917 201.464V186.461L451.484 185.852V185.244H462.838V185.852L460.405 186.461V205.722H460C458.026 205.722 456.526 205.181 455.499 204.1C455.039 203.613 454.715 203.073 454.526 202.478C454.147 203.154 453.701 203.762 453.187 204.303C451.971 205.519 450.457 206.127 448.646 206.127ZM465.287 204.911L467.72 204.303V186.461L465.287 185.852V185.244H468.937C470.532 185.244 471.789 185.758 472.708 186.785C473.059 187.19 473.357 187.691 473.6 188.285C474.006 187.528 474.438 186.92 474.898 186.461C476.114 185.244 477.506 184.636 479.074 184.636C480.642 184.636 482.021 184.987 483.21 185.69C484.4 186.366 485.319 187.299 485.968 188.488C486.373 187.704 486.806 187.069 487.265 186.582C488.509 185.285 489.901 184.636 491.442 184.636C492.875 184.636 494.159 184.933 495.294 185.528C496.457 186.123 497.349 186.934 497.971 187.961C498.62 188.988 498.944 190.11 498.944 191.327V204.303L501.377 204.911V205.519H496.105C493.672 205.519 492.456 204.303 492.456 201.87V191.327C492.456 189.569 492.186 188.258 491.645 187.393C491.104 186.501 490.496 186.055 489.82 186.055C489.036 186.055 488.239 186.596 487.428 187.677C487.103 188.191 486.819 188.731 486.576 189.299V204.303L489.009 204.911V205.519H477.655V204.911L480.088 204.303V191.327C480.088 189.569 479.818 188.258 479.277 187.393C478.736 186.501 478.128 186.055 477.452 186.055C476.668 186.055 475.871 186.596 475.06 187.677C474.735 188.191 474.452 188.731 474.208 189.299V204.303L476.641 204.911V205.519H465.287V204.911ZM503.818 204.911L506.251 204.303V186.461L503.818 185.852V185.244H509.089C511.522 185.244 512.739 186.461 512.739 188.894V204.303L515.172 204.911V205.519H503.818V204.911ZM509.089 182.811C508.278 182.811 507.603 182.541 507.062 182C506.521 181.459 506.251 180.783 506.251 179.972C506.251 179.161 506.521 178.486 507.062 177.945C507.603 177.404 508.278 177.134 509.089 177.134C509.9 177.134 510.576 177.404 511.117 177.945C511.658 178.486 511.928 179.161 511.928 179.972C511.928 180.783 511.658 181.459 511.117 182C510.576 182.541 509.9 182.811 509.089 182.811ZM528.142 206.127C526.357 206.127 524.803 205.803 523.478 205.154C522.181 204.505 521.181 203.613 520.478 202.478C519.775 201.342 519.423 200.058 519.423 198.626V186.258H516.585V185.244H519.423V183.217C519.423 180.783 520.64 179.567 523.073 179.567H525.911V185.244H531.588V186.258H525.911V198.626C525.911 201.113 526.168 202.816 526.682 203.735C527.196 204.654 527.952 205.114 528.953 205.114C529.926 205.114 530.777 204.641 531.507 203.694C532.237 202.748 532.602 201.464 532.602 199.842H533.616C533.616 201.843 533.116 203.397 532.116 204.505C531.115 205.587 529.791 206.127 528.142 206.127ZM543.365 206.127C540.959 206.127 539.108 205.614 537.81 204.586C536.512 203.559 535.864 202.248 535.864 200.653C535.864 199.599 536.093 198.558 536.553 197.531C536.742 197.044 536.986 196.598 537.283 196.193C538.391 195.922 539.594 195.679 540.892 195.463C543.812 194.976 546.393 194.679 548.637 194.571V193.354C548.637 190.353 548.272 188.285 547.542 187.15C546.812 186.014 545.69 185.447 544.176 185.447C543.609 185.447 543.122 185.514 542.717 185.65L542.149 185.852V191.935L541.622 192.056C541.189 192.111 540.824 192.138 540.527 192.138C539.608 192.138 538.864 191.867 538.297 191.327C537.756 190.759 537.486 190.015 537.486 189.096C537.486 187.853 538.107 186.798 539.351 185.933C540.622 185.068 542.5 184.636 544.987 184.636C547.096 184.636 548.907 185.014 550.421 185.771C551.962 186.501 553.125 187.528 553.909 188.853C554.72 190.151 555.125 191.651 555.125 193.354V204.303L557.558 204.911V205.519H553.909C552.287 205.519 551.029 205.019 550.137 204.019C549.759 203.613 549.462 203.1 549.245 202.478C548.867 203.154 548.421 203.762 547.907 204.303C546.691 205.519 545.177 206.127 543.365 206.127ZM544.987 204.708C545.988 204.708 546.893 204.167 547.704 203.086C548.002 202.681 548.313 202.14 548.637 201.464V195.584C547.393 195.584 546.204 195.652 545.069 195.787C544.231 195.895 543.663 195.963 543.365 195.99C543.23 196.287 543.095 196.693 542.96 197.206C542.69 198.234 542.554 199.247 542.554 200.248C542.554 201.761 542.784 202.883 543.244 203.613C543.703 204.343 544.285 204.708 544.987 204.708ZM569.539 206.127C567.863 206.127 566.363 205.762 565.038 205.033C564.389 204.681 563.862 204.303 563.457 203.897C563.024 204.492 562.551 204.951 562.038 205.276C561.794 205.438 561.524 205.587 561.227 205.722H560.213V198.828H561.835C562.186 199.964 562.7 201.018 563.376 201.991C564.809 204.073 566.593 205.114 568.728 205.114C569.864 205.114 570.715 204.843 571.283 204.303C571.878 203.735 572.175 202.924 572.175 201.87C572.175 200.978 571.77 200.234 570.959 199.639C570.175 199.018 568.931 198.261 567.228 197.369C565.768 196.639 564.579 195.99 563.66 195.422C562.767 194.827 561.997 194.097 561.348 193.232C560.726 192.34 560.416 191.3 560.416 190.11C560.416 188.488 561.105 187.177 562.484 186.177C563.889 185.149 566.039 184.636 568.931 184.636C570.364 184.636 571.689 185.014 572.905 185.771C573.5 186.123 574.013 186.488 574.446 186.866C574.797 186.379 575.27 185.92 575.865 185.487C576.325 185.217 576.595 185.068 576.676 185.041H577.69V191.935H576.068C575.662 190.772 575.162 189.732 574.568 188.812C573.216 186.704 571.607 185.65 569.742 185.65C569.012 185.65 568.39 185.92 567.877 186.461C567.363 187.001 567.106 187.677 567.106 188.488C567.106 189.515 567.539 190.38 568.404 191.083C569.269 191.759 570.58 192.543 572.337 193.435C573.77 194.165 574.906 194.814 575.744 195.382C576.609 195.922 577.339 196.598 577.933 197.409C578.555 198.22 578.866 199.166 578.866 200.248C578.866 204.167 575.757 206.127 569.539 206.127ZM597.734 214.237C596.518 214.237 595.572 213.913 594.896 213.264C594.22 212.615 593.882 211.723 593.882 210.588C593.882 209.561 594.153 208.763 594.693 208.195C595.261 207.628 596.004 207.344 596.923 207.344C597.14 207.344 597.356 207.357 597.572 207.384C597.789 207.439 597.937 207.466 598.018 207.466L598.545 207.547V213.021C599.329 212.886 600.019 212.453 600.614 211.723C601.208 210.993 601.871 209.736 602.6 207.952L603.411 205.925L592.868 186.461L590.841 185.852V185.244H595.91C597.315 185.244 598.424 185.541 599.235 186.136C600.073 186.704 600.789 187.555 601.384 188.691L606.453 198.058L610.711 187.069L607.669 185.852V185.244H615.171V185.852L611.927 187.069L603.817 207.952C602.952 210.169 602.033 211.764 601.06 212.737C600.086 213.737 598.978 214.237 597.734 214.237ZM632.804 204.911L635.237 204.303V178.148H630.574C630.574 179.797 630.128 181.378 629.236 182.892C628.857 183.514 628.425 184.028 627.938 184.433H626.722V177.134H650.443V184.433H649.227C648.713 184.028 648.267 183.514 647.889 182.892C647.024 181.432 646.591 179.851 646.591 178.148H641.928V204.303L644.361 204.911V205.519H632.804V204.911ZM658.957 206.127C656.551 206.127 654.7 205.614 653.402 204.586C652.104 203.559 651.456 202.248 651.456 200.653C651.456 199.599 651.685 198.558 652.145 197.531C652.334 197.044 652.577 196.598 652.875 196.193C653.983 195.922 655.186 195.679 656.484 195.463C659.403 194.976 661.985 194.679 664.229 194.571V193.354C664.229 190.353 663.864 188.285 663.134 187.15C662.404 186.014 661.282 185.447 659.768 185.447C659.201 185.447 658.714 185.514 658.309 185.65L657.741 185.852V191.935L657.214 192.056C656.781 192.111 656.416 192.138 656.119 192.138C655.2 192.138 654.456 191.867 653.889 191.327C653.348 190.759 653.078 190.015 653.078 189.096C653.078 187.853 653.699 186.798 654.943 185.933C656.213 185.068 658.092 184.636 660.579 184.636C662.688 184.636 664.499 185.014 666.013 185.771C667.554 186.501 668.716 187.528 669.5 188.853C670.311 190.151 670.717 191.651 670.717 193.354V204.303L673.15 204.911V205.519H669.5C667.878 205.519 666.621 205.019 665.729 204.019C665.351 203.613 665.053 203.1 664.837 202.478C664.459 203.154 664.013 203.762 663.499 204.303C662.283 205.519 660.769 206.127 658.957 206.127ZM660.579 204.708C661.58 204.708 662.485 204.167 663.296 203.086C663.594 202.681 663.905 202.14 664.229 201.464V195.584C662.985 195.584 661.796 195.652 660.661 195.787C659.822 195.895 659.255 195.963 658.957 195.99C658.822 196.287 658.687 196.693 658.552 197.206C658.282 198.234 658.146 199.247 658.146 200.248C658.146 201.761 658.376 202.883 658.836 203.613C659.295 204.343 659.877 204.708 660.579 204.708ZM675.602 204.911L678.035 204.303V186.461L675.602 185.852V185.244H679.252C680.846 185.244 682.104 185.758 683.023 186.785C683.374 187.19 683.671 187.691 683.915 188.285C684.32 187.528 684.753 186.92 685.212 186.461C686.429 185.244 687.821 184.636 689.389 184.636C690.957 184.636 692.336 184.987 693.525 185.69C694.715 186.366 695.634 187.299 696.283 188.488C696.688 187.704 697.121 187.069 697.58 186.582C698.824 185.285 700.216 184.636 701.757 184.636C703.19 184.636 704.474 184.933 705.609 185.528C706.772 186.123 707.664 186.934 708.285 187.961C708.934 188.988 709.259 190.11 709.259 191.327V204.303L711.692 204.911V205.519H706.42C703.987 205.519 702.771 204.303 702.771 201.87V191.327C702.771 189.569 702.5 188.258 701.96 187.393C701.419 186.501 700.811 186.055 700.135 186.055C699.351 186.055 698.553 186.596 697.742 187.677C697.418 188.191 697.134 188.731 696.891 189.299V204.303L699.324 204.911V205.519H687.97V204.911L690.403 204.303V191.327C690.403 189.569 690.132 188.258 689.592 187.393C689.051 186.501 688.443 186.055 687.767 186.055C686.983 186.055 686.186 186.596 685.375 187.677C685.05 188.191 684.766 188.731 684.523 189.299V204.303L686.956 204.911V205.519H675.602V204.911ZM722.04 206.127C719.634 206.127 717.782 205.614 716.485 204.586C715.187 203.559 714.538 202.248 714.538 200.653C714.538 199.599 714.768 198.558 715.227 197.531C715.417 197.044 715.66 196.598 715.957 196.193C717.066 195.922 718.269 195.679 719.566 195.463C722.486 194.976 725.068 194.679 727.311 194.571V193.354C727.311 190.353 726.947 188.285 726.217 187.15C725.487 186.014 724.365 185.447 722.851 185.447C722.283 185.447 721.797 185.514 721.391 185.65L720.823 185.852V191.935L720.296 192.056C719.864 192.111 719.499 192.138 719.201 192.138C718.282 192.138 717.539 191.867 716.971 191.327C716.43 190.759 716.16 190.015 716.16 189.096C716.16 187.853 716.782 186.798 718.025 185.933C719.296 185.068 721.175 184.636 723.662 184.636C725.771 184.636 727.582 185.014 729.096 185.771C730.637 186.501 731.799 187.528 732.583 188.853C733.394 190.151 733.799 191.651 733.799 193.354V204.303L736.233 204.911V205.519H732.583C730.961 205.519 729.704 205.019 728.812 204.019C728.433 203.613 728.136 203.1 727.92 202.478C727.541 203.154 727.095 203.762 726.582 204.303C725.365 205.519 723.851 206.127 722.04 206.127ZM723.662 204.708C724.662 204.708 725.568 204.167 726.379 203.086C726.676 202.681 726.987 202.14 727.311 201.464V195.584C726.068 195.584 724.878 195.652 723.743 195.787C722.905 195.895 722.337 195.963 722.04 195.99C721.905 196.287 721.77 196.693 721.634 197.206C721.364 198.234 721.229 199.247 721.229 200.248C721.229 201.761 721.459 202.883 721.918 203.613C722.378 204.343 722.959 204.708 723.662 204.708ZM738.685 204.911L741.118 204.303V178.35L738.685 177.742V177.134H743.956C746.389 177.134 747.606 178.35 747.606 180.783V204.303L750.039 204.911V205.519H738.685V204.911ZM763.414 206.127C759.954 206.127 757.264 205.181 755.344 203.289C753.425 201.369 752.465 198.734 752.465 195.382C752.465 193.192 752.884 191.286 753.722 189.664C754.56 188.042 755.723 186.798 757.21 185.933C758.724 185.068 760.454 184.636 762.4 184.636C764.346 184.636 766.05 185.001 767.509 185.731C768.996 186.461 770.132 187.447 770.916 188.691C771.727 189.907 772.132 191.259 772.132 192.746C772.132 193.422 772.065 194.003 771.929 194.489L771.727 195.179C770.564 195.422 769.307 195.625 767.955 195.787C765.117 196.193 762.251 196.395 759.359 196.395C759.359 199.531 759.791 201.775 760.656 203.127C761.521 204.451 762.711 205.114 764.225 205.114C765.279 205.114 766.252 204.87 767.144 204.384C768.064 203.87 768.78 203.208 769.294 202.397C769.834 201.559 770.105 200.707 770.105 199.842H771.118C771.118 200.923 770.794 201.951 770.145 202.924C769.496 203.897 768.591 204.681 767.428 205.276C766.266 205.844 764.928 206.127 763.414 206.127ZM759.359 195.382C761.089 195.382 762.495 195.314 763.576 195.179C764.036 195.152 764.522 195.084 765.036 194.976C765.063 194.841 765.13 194.544 765.239 194.084C765.374 193.408 765.441 192.692 765.441 191.935C765.441 189.691 765.144 188.055 764.549 187.028C763.955 185.974 763.238 185.447 762.4 185.447C760.373 185.447 759.359 188.758 759.359 195.382ZM784.685 206.127C783.009 206.127 781.509 205.762 780.184 205.033C779.535 204.681 779.008 204.303 778.603 203.897C778.17 204.492 777.697 204.951 777.184 205.276C776.94 205.438 776.67 205.587 776.373 205.722H775.359V198.828H776.981C777.332 199.964 777.846 201.018 778.522 201.991C779.954 204.073 781.739 205.114 783.874 205.114C785.01 205.114 785.861 204.843 786.429 204.303C787.024 203.735 787.321 202.924 787.321 201.87C787.321 200.978 786.916 200.234 786.105 199.639C785.321 199.018 784.077 198.261 782.374 197.369C780.914 196.639 779.725 195.99 778.806 195.422C777.913 194.827 777.143 194.097 776.494 193.232C775.872 192.34 775.562 191.3 775.562 190.11C775.562 188.488 776.251 187.177 777.63 186.177C779.035 185.149 781.184 184.636 784.077 184.636C785.51 184.636 786.834 185.014 788.051 185.771C788.646 186.123 789.159 186.488 789.592 186.866C789.943 186.379 790.416 185.92 791.011 185.487C791.471 185.217 791.741 185.068 791.822 185.041H792.836V191.935H791.214C790.808 190.772 790.308 189.732 789.714 188.812C788.362 186.704 786.753 185.65 784.888 185.65C784.158 185.65 783.536 185.92 783.023 186.461C782.509 187.001 782.252 187.677 782.252 188.488C782.252 189.515 782.685 190.38 783.55 191.083C784.415 191.759 785.726 192.543 787.483 193.435C788.916 194.165 790.051 194.814 790.89 195.382C791.755 195.922 792.484 196.598 793.079 197.409C793.701 198.22 794.012 199.166 794.012 200.248C794.012 204.167 790.903 206.127 784.685 206.127Z" fill="#FDF28E"/>
<path d="M476.264 452.132C474.345 452.132 472.547 451.7 470.871 450.835C470.114 450.456 469.479 450.01 468.965 449.496C468.587 450.118 468.114 450.672 467.546 451.159C467.059 451.51 466.789 451.7 466.735 451.727H465.721V444.022H467.343C467.749 445.347 468.316 446.536 469.046 447.591C470.695 449.942 472.831 451.118 475.453 451.118C476.994 451.118 478.224 450.659 479.143 449.74C480.062 448.821 480.522 447.591 480.522 446.05C480.522 445.158 480.252 444.36 479.711 443.657C479.197 442.954 478.549 442.333 477.765 441.792C476.981 441.251 475.886 440.575 474.48 439.764C472.696 438.764 471.25 437.858 470.141 437.047C469.033 436.236 468.087 435.223 467.303 434.006C466.519 432.763 466.127 431.303 466.127 429.627C466.127 428.302 466.492 427.113 467.222 426.058C467.978 424.977 469.1 424.125 470.587 423.504C472.074 422.855 473.899 422.531 476.061 422.531C477.629 422.531 479.197 422.977 480.765 423.869C481.36 424.193 481.955 424.626 482.55 425.166C483.009 424.463 483.482 423.909 483.969 423.504C484.455 423.152 484.726 422.963 484.78 422.936H485.794V430.641H484.172C483.82 429.343 483.293 428.167 482.59 427.113C481.941 426.085 481.13 425.234 480.157 424.558C479.211 423.882 478.116 423.544 476.872 423.544C475.818 423.544 474.913 423.963 474.156 424.801C473.399 425.639 473.02 426.707 473.02 428.005C473.02 429.005 473.304 429.911 473.872 430.722C474.466 431.506 475.183 432.195 476.021 432.79C476.886 433.384 478.048 434.101 479.508 434.939C481.211 435.912 482.59 436.777 483.644 437.534C484.699 438.291 485.591 439.237 486.321 440.373C487.051 441.481 487.416 442.765 487.416 444.225C487.416 445.685 486.997 447.023 486.158 448.239C485.32 449.429 484.063 450.375 482.387 451.078C480.711 451.781 478.67 452.132 476.264 452.132ZM497.948 452.132C495.542 452.132 493.69 451.619 492.392 450.591C491.095 449.564 490.446 448.253 490.446 446.658C490.446 445.604 490.675 444.563 491.135 443.536C491.324 443.049 491.568 442.603 491.865 442.197C492.973 441.927 494.176 441.684 495.474 441.467C498.394 440.981 500.975 440.683 503.219 440.575V439.359C503.219 436.358 502.854 434.29 502.124 433.155C501.394 432.019 500.272 431.452 498.759 431.452C498.191 431.452 497.704 431.519 497.299 431.654L496.731 431.857V437.94L496.204 438.061C495.771 438.115 495.406 438.142 495.109 438.142C494.19 438.142 493.446 437.872 492.879 437.331C492.338 436.764 492.068 436.02 492.068 435.101C492.068 433.858 492.689 432.803 493.933 431.938C495.204 431.073 497.082 430.641 499.57 430.641C501.678 430.641 503.489 431.019 505.003 431.776C506.544 432.506 507.707 433.533 508.491 434.858C509.302 436.155 509.707 437.656 509.707 439.359V450.307L512.14 450.916V451.524H508.491C506.869 451.524 505.612 451.024 504.719 450.024C504.341 449.618 504.044 449.104 503.827 448.483C503.449 449.158 503.003 449.767 502.489 450.307C501.273 451.524 499.759 452.132 497.948 452.132ZM499.57 450.713C500.57 450.713 501.475 450.172 502.286 449.091C502.584 448.685 502.895 448.145 503.219 447.469V441.589C501.975 441.589 500.786 441.657 499.651 441.792C498.813 441.9 498.245 441.968 497.948 441.995C497.812 442.292 497.677 442.697 497.542 443.211C497.272 444.238 497.137 445.252 497.137 446.252C497.137 447.766 497.366 448.888 497.826 449.618C498.285 450.348 498.867 450.713 499.57 450.713ZM527.974 452.132C526.162 452.132 524.649 451.524 523.432 450.307C522.918 449.767 522.472 449.158 522.094 448.483C521.905 449.077 521.58 449.618 521.121 450.105C520.093 451.186 518.593 451.727 516.62 451.727H516.214V424.355L513.781 423.747V423.139H519.053C521.486 423.139 522.702 424.355 522.702 426.788V432.263C523.135 431.911 523.554 431.641 523.959 431.452C524.932 430.911 526.068 430.641 527.365 430.641C530.096 430.641 532.258 431.573 533.853 433.439C535.475 435.277 536.286 437.926 536.286 441.386C536.286 443.684 535.922 445.644 535.192 447.266C534.462 448.861 533.475 450.078 532.231 450.916C530.988 451.727 529.569 452.132 527.974 452.132ZM526.352 450.713C527.217 450.713 527.933 450.037 528.501 448.685C529.096 447.307 529.393 444.874 529.393 441.386C529.393 437.737 529.069 435.236 528.42 433.885C527.798 432.533 526.906 431.857 525.743 431.857C525.041 431.857 524.324 432.127 523.594 432.668C523.378 432.83 523.081 433.101 522.702 433.479V447.469C522.945 448.091 523.243 448.631 523.594 449.091C524.405 450.172 525.324 450.713 526.352 450.713ZM550.286 452.132C546.934 452.132 544.298 451.186 542.379 449.294C540.486 447.374 539.54 444.739 539.54 441.386C539.54 438.034 540.486 435.412 542.379 433.52C544.298 431.6 546.934 430.641 550.286 430.641C553.638 430.641 556.26 431.6 558.153 433.52C560.072 435.412 561.032 438.034 561.032 441.386C561.032 444.739 560.072 447.374 558.153 449.294C556.26 451.186 553.638 452.132 550.286 452.132ZM550.286 451.321C551.367 451.321 552.273 450.564 553.003 449.05C553.76 447.536 554.138 444.982 554.138 441.386C554.138 437.791 553.76 435.236 553.003 433.722C552.273 432.208 551.367 431.452 550.286 431.452C549.204 431.452 548.285 432.208 547.528 433.722C546.799 435.236 546.434 437.791 546.434 441.386C546.434 444.982 546.799 447.536 547.528 449.05C548.285 450.564 549.204 451.321 550.286 451.321ZM564.29 450.916L566.723 450.307V432.465L564.29 431.857V431.249H567.939C569.534 431.249 570.791 431.762 571.711 432.79C572.062 433.195 572.359 433.695 572.603 434.29C573.008 433.695 573.508 433.155 574.103 432.668C575.455 431.587 576.969 431.046 578.645 431.046C580.077 431.046 581.145 431.384 581.848 432.06C582.578 432.709 582.943 433.655 582.943 434.898C582.943 435.817 582.659 436.561 582.091 437.129C581.551 437.669 580.821 437.94 579.902 437.94C579.523 437.94 579.145 437.913 578.766 437.858L578.28 437.737V432.06C576.901 432.06 575.644 432.6 574.509 433.682C573.968 434.222 573.535 434.763 573.211 435.304V450.307L575.644 450.916V451.524H564.29V450.916ZM596.534 450.916L598.967 450.307V424.355L596.534 423.747V423.139H608.091V423.747L605.657 424.355V450.51H614.376C614.376 448.807 614.808 447.226 615.673 445.766C616.052 445.144 616.498 444.63 617.012 444.225H618.228V451.524H596.534V450.916ZM631.624 452.132C628.272 452.132 625.636 451.186 623.717 449.294C621.824 447.374 620.878 444.739 620.878 441.386C620.878 438.034 621.824 435.412 623.717 433.52C625.636 431.6 628.272 430.641 631.624 430.641C634.976 430.641 637.598 431.6 639.491 433.52C641.41 435.412 642.37 438.034 642.37 441.386C642.37 444.739 641.41 447.374 639.491 449.294C637.598 451.186 634.976 452.132 631.624 452.132ZM631.624 451.321C632.705 451.321 633.611 450.564 634.341 449.05C635.098 447.536 635.476 444.982 635.476 441.386C635.476 437.791 635.098 435.236 634.341 433.722C633.611 432.208 632.705 431.452 631.624 431.452C630.543 431.452 629.623 432.208 628.866 433.722C628.137 435.236 627.772 437.791 627.772 441.386C627.772 444.982 628.137 447.536 628.866 449.05C629.623 450.564 630.543 451.321 631.624 451.321ZM645.425 460.242C643.398 460.242 641.911 459.904 640.965 459.228C640.019 458.553 639.545 457.606 639.545 456.39C639.545 455.471 639.829 454.727 640.397 454.16C640.938 453.619 641.668 453.349 642.587 453.349C642.803 453.349 643.019 453.362 643.236 453.389C643.452 453.443 643.6 453.47 643.682 453.47L644.209 453.551V459.228L644.452 459.35C644.722 459.404 644.912 459.431 645.02 459.431C645.858 459.431 646.534 458.918 647.047 457.89C647.588 456.89 647.858 455.173 647.858 452.74V432.465L645.425 431.857V431.249H650.697C653.13 431.249 654.346 432.465 654.346 434.898V452.74C654.346 454.173 653.995 455.457 653.292 456.593C652.589 457.728 651.562 458.62 650.21 459.269C648.858 459.918 647.264 460.242 645.425 460.242ZM650.697 428.816C649.886 428.816 649.21 428.545 648.669 428.005C648.129 427.464 647.858 426.788 647.858 425.977C647.858 425.166 648.129 424.49 648.669 423.95C649.21 423.409 649.886 423.139 650.697 423.139C651.508 423.139 652.184 423.409 652.724 423.95C653.265 424.49 653.535 425.166 653.535 425.977C653.535 426.788 653.265 427.464 652.724 428.005C652.184 428.545 651.508 428.816 650.697 428.816ZM666.92 452.132C664.514 452.132 662.662 451.619 661.365 450.591C660.067 449.564 659.418 448.253 659.418 446.658C659.418 445.604 659.648 444.563 660.108 443.536C660.297 443.049 660.54 442.603 660.838 442.197C661.946 441.927 663.149 441.684 664.446 441.467C667.366 440.981 669.948 440.683 672.192 440.575V439.359C672.192 436.358 671.827 434.29 671.097 433.155C670.367 432.019 669.245 431.452 667.731 431.452C667.163 431.452 666.677 431.519 666.271 431.654L665.704 431.857V437.94L665.176 438.061C664.744 438.115 664.379 438.142 664.082 438.142C663.162 438.142 662.419 437.872 661.851 437.331C661.311 436.764 661.04 436.02 661.04 435.101C661.04 433.858 661.662 432.803 662.906 431.938C664.176 431.073 666.055 430.641 668.542 430.641C670.651 430.641 672.462 431.019 673.976 431.776C675.517 432.506 676.679 433.533 677.463 434.858C678.274 436.155 678.68 437.656 678.68 439.359V450.307L681.113 450.916V451.524H677.463C675.841 451.524 674.584 451.024 673.692 450.024C673.313 449.618 673.016 449.104 672.8 448.483C672.421 449.158 671.975 449.767 671.462 450.307C670.245 451.524 668.731 452.132 666.92 452.132ZM668.542 450.713C669.542 450.713 670.448 450.172 671.259 449.091C671.556 448.685 671.867 448.145 672.192 447.469V441.589C670.948 441.589 669.759 441.657 668.623 441.792C667.785 441.9 667.217 441.968 666.92 441.995C666.785 442.292 666.65 442.697 666.515 443.211C666.244 444.238 666.109 445.252 666.109 446.252C666.109 447.766 666.339 448.888 666.798 449.618C667.258 450.348 667.839 450.713 668.542 450.713ZM683.565 450.916L685.998 450.307V432.465L683.565 431.857V431.249H687.214C688.809 431.249 690.066 431.762 690.985 432.79C691.337 433.195 691.634 433.695 691.877 434.29C692.256 433.587 692.702 432.979 693.216 432.465C694.432 431.249 695.946 430.641 697.757 430.641C699.271 430.641 700.623 430.965 701.812 431.614C703.029 432.236 703.975 433.06 704.651 434.087C705.327 435.115 705.665 436.196 705.665 437.331V450.307L708.098 450.916V451.524H702.826C700.393 451.524 699.176 450.307 699.176 447.874V437.331C699.176 435.628 698.866 434.331 698.244 433.439C697.649 432.519 696.946 432.06 696.135 432.06C695.108 432.06 694.189 432.6 693.378 433.682C693.026 434.141 692.729 434.682 692.486 435.304V450.307L694.919 450.916V451.524H683.565V450.916ZM721.278 452.132C717.926 452.132 715.29 451.186 713.371 449.294C711.478 447.374 710.532 444.739 710.532 441.386C710.532 438.034 711.478 435.412 713.371 433.52C715.29 431.6 717.926 430.641 721.278 430.641C724.63 430.641 727.252 431.6 729.145 433.52C731.064 435.412 732.024 438.034 732.024 441.386C732.024 444.739 731.064 447.374 729.145 449.294C727.252 451.186 724.63 452.132 721.278 452.132ZM721.278 451.321C722.359 451.321 723.265 450.564 723.995 449.05C724.752 447.536 725.13 444.982 725.13 441.386C725.13 437.791 724.752 435.236 723.995 433.722C723.265 432.208 722.359 431.452 721.278 431.452C720.197 431.452 719.277 432.208 718.521 433.722C717.791 435.236 717.426 437.791 717.426 441.386C717.426 444.982 717.791 447.536 718.521 449.05C719.277 450.564 720.197 451.321 721.278 451.321Z" fill="#FDF28E"/>
<defs>
<filter id="filter0_d_402_10" x="312.107" y="26.1069" width="576.786" height="576.786" filterUnits="userSpaceOnUse" color-interpolation-filters="sRGB">
<feFlood flood-opacity="0" result="BackgroundImageFix"/>
<feColorMatrix in="SourceAlpha" type="matrix" values="0 0 0 0 0 0 0 0 0 0 0 0 0 0 0 0 0 0 127 0" result="hardAlpha"/>
<feMorphology radius="2.94655" operator="dilate" in="SourceAlpha" result="effect1_dropShadow_402_10"/>
<feOffset/>
<feGaussianBlur stdDeviation="1.47327"/>
<feComposite in2="hardAlpha" operator="out"/>
<feColorMatrix type="matrix" values="0 0 0 0 1 0 0 0 0 0.941176 0 0 0 0 0.427451 0 0 0 1 0"/>
<feBlend mode="normal" in2="BackgroundImageFix" result="effect1_dropShadow_402_10"/>
<feBlend mode="normal" in="SourceGraphic" in2="effect1_dropShadow_402_10" result="shape"/>
</filter>
<linearGradient id="paint0_linear_402_10" x1="600.5" y1="32" x2="600.5" y2="597" gradientUnits="userSpaceOnUse">
<stop stop-color="#1C6D7C"/>
<stop offset="0.59375" stop-color="#409985"/>
</linearGradient>
</defs>
</svg>
